<mxfile host="app.diagrams.net" modified="2023-10-25T02:28:45.679Z" agent="Mozilla/5.0 (X11; Linux x86_64) AppleWebKit/537.36 (KHTML, like Gecko) Chrome/118.0.0.0 Safari/537.36" etag="q6lK8FVbswb-YSzlmv07" version="22.0.7" type="google">
  <diagram name="Page-1" id="PnJ-Q2S_ZAnkpLyLJxUY">
    <mxGraphModel grid="1" page="1" gridSize="10" guides="1" tooltips="1" connect="1" arrows="1" fold="1" pageScale="1" pageWidth="850" pageHeight="1100" math="0" shadow="0">
      <root>
        <mxCell id="0" />
        <mxCell id="1" parent="0" />
        <mxCell id="ROmwuhWYa9xoos25vHBg-1" value="Controlador" style="shape=folder;fontStyle=1;tabWidth=76;tabHeight=20;tabPosition=left;html=1;boundedLbl=1;labelInHeader=1;container=1;collapsible=0;whiteSpace=wrap;fillColor=#dae8fc;strokeColor=#6c8ebf;" vertex="1" parent="1">
          <mxGeometry x="950" y="-500" width="610" height="380" as="geometry" />
        </mxCell>
        <mxCell id="ROmwuhWYa9xoos25vHBg-2" value="" style="html=1;strokeColor=none;resizeWidth=1;resizeHeight=1;fillColor=none;part=1;connectable=0;allowArrows=0;deletable=0;whiteSpace=wrap;" vertex="1" parent="ROmwuhWYa9xoos25vHBg-1">
          <mxGeometry width="609.9999999999999" height="266" relative="1" as="geometry">
            <mxPoint y="30" as="offset" />
          </mxGeometry>
        </mxCell>
        <mxCell id="ROmwuhWYa9xoos25vHBg-3" value="SalirTorneo" style="swimlane;fontStyle=1;align=center;verticalAlign=top;childLayout=stackLayout;horizontal=1;startSize=26;horizontalStack=0;resizeParent=1;resizeParentMax=0;resizeLast=0;collapsible=1;marginBottom=0;whiteSpace=wrap;html=1;swimlaneFillColor=#F0F0F0;gradientColor=none;" vertex="1" parent="ROmwuhWYa9xoos25vHBg-1">
          <mxGeometry x="10.217755443886096" y="40" width="585.9167504187604" height="129.99689655172415" as="geometry" />
        </mxCell>
        <mxCell id="ROmwuhWYa9xoos25vHBg-4" value="" style="line;strokeWidth=1;fillColor=none;align=left;verticalAlign=middle;spacingTop=-1;spacingLeft=3;spacingRight=3;rotatable=0;labelPosition=right;points=[];portConstraint=eastwest;strokeColor=inherit;" vertex="1" parent="ROmwuhWYa9xoos25vHBg-3">
          <mxGeometry y="26" width="585.9167504187604" height="26.206896551724142" as="geometry" />
        </mxCell>
        <mxCell id="ROmwuhWYa9xoos25vHBg-5" value="+ salirTorneo(torneoId: int, participanteId: int): Bool" style="text;strokeColor=none;fillColor=none;align=left;verticalAlign=top;spacingLeft=4;spacingRight=4;overflow=hidden;rotatable=0;points=[[0,0.5],[1,0.5]];portConstraint=eastwest;whiteSpace=wrap;html=1;" vertex="1" parent="ROmwuhWYa9xoos25vHBg-3">
          <mxGeometry y="52.20689655172414" width="585.9167504187604" height="77.79" as="geometry" />
        </mxCell>
        <mxCell id="ROmwuhWYa9xoos25vHBg-6" value="Modelo" style="shape=folder;fontStyle=1;tabWidth=60;tabHeight=20;tabPosition=left;html=1;boundedLbl=1;labelInHeader=1;container=1;collapsible=0;whiteSpace=wrap;fillColor=#d5e8d4;strokeColor=#82b366;" vertex="1" parent="1">
          <mxGeometry x="1080" y="-110" width="380" height="380" as="geometry" />
        </mxCell>
        <mxCell id="ROmwuhWYa9xoos25vHBg-7" value="" style="html=1;strokeColor=none;resizeWidth=1;resizeHeight=1;fillColor=none;part=1;connectable=0;allowArrows=0;deletable=0;whiteSpace=wrap;" vertex="1" parent="ROmwuhWYa9xoos25vHBg-6">
          <mxGeometry width="300" height="229.31034482758625" relative="1" as="geometry">
            <mxPoint y="30" as="offset" />
          </mxGeometry>
        </mxCell>
        <mxCell id="ROmwuhWYa9xoos25vHBg-8" value="EntrarBD" style="swimlane;fontStyle=1;align=center;verticalAlign=top;childLayout=stackLayout;horizontal=1;startSize=26;horizontalStack=0;resizeParent=1;resizeParentMax=0;resizeLast=0;collapsible=1;marginBottom=0;whiteSpace=wrap;html=1;swimlaneFillColor=#F0F0F0;gradientColor=none;" vertex="1" parent="ROmwuhWYa9xoos25vHBg-6">
          <mxGeometry x="17.27" y="40" width="354.09" height="95.99689655172415" as="geometry">
            <mxRectangle x="17.27" y="40" width="100" height="30" as="alternateBounds" />
          </mxGeometry>
        </mxCell>
        <mxCell id="ROmwuhWYa9xoos25vHBg-10" value="" style="line;strokeWidth=1;fillColor=none;align=left;verticalAlign=middle;spacingTop=-1;spacingLeft=3;spacingRight=3;rotatable=0;labelPosition=right;points=[];portConstraint=eastwest;strokeColor=inherit;" vertex="1" parent="ROmwuhWYa9xoos25vHBg-8">
          <mxGeometry y="26" width="354.09" height="26.206896551724142" as="geometry" />
        </mxCell>
        <mxCell id="ROmwuhWYa9xoos25vHBg-11" value="+ salirTorneo(idTorneo:int, idParticipante: int)" style="text;strokeColor=none;fillColor=none;align=left;verticalAlign=top;spacingLeft=4;spacingRight=4;overflow=hidden;rotatable=0;points=[[0,0.5],[1,0.5]];portConstraint=eastwest;whiteSpace=wrap;html=1;" vertex="1" parent="ROmwuhWYa9xoos25vHBg-8">
          <mxGeometry y="52.20689655172414" width="354.09" height="43.79" as="geometry" />
        </mxCell>
        <mxCell id="ROmwuhWYa9xoos25vHBg-12" value="ConexionBD" style="swimlane;fontStyle=1;align=center;verticalAlign=top;childLayout=stackLayout;horizontal=1;startSize=26;horizontalStack=0;resizeParent=1;resizeParentMax=0;resizeLast=0;collapsible=1;marginBottom=0;whiteSpace=wrap;html=1;swimlaneFillColor=#F0F0F0;gradientColor=none;" vertex="1" parent="ROmwuhWYa9xoos25vHBg-6">
          <mxGeometry x="124.31" y="230" width="140" height="97.2115063520871" as="geometry" />
        </mxCell>
        <mxCell id="ROmwuhWYa9xoos25vHBg-13" value="" style="line;strokeWidth=1;fillColor=none;align=left;verticalAlign=middle;spacingTop=-1;spacingLeft=3;spacingRight=3;rotatable=0;labelPosition=right;points=[];portConstraint=eastwest;strokeColor=inherit;" vertex="1" parent="ROmwuhWYa9xoos25vHBg-12">
          <mxGeometry y="26" width="140" height="31.724137931034484" as="geometry" />
        </mxCell>
        <mxCell id="ROmwuhWYa9xoos25vHBg-14" value="+ conectarBD()&lt;br&gt;+ desconectarBD()" style="text;strokeColor=none;fillColor=none;align=left;verticalAlign=top;spacingLeft=4;spacingRight=4;overflow=hidden;rotatable=0;points=[[0,0.5],[1,0.5]];portConstraint=eastwest;whiteSpace=wrap;html=1;" vertex="1" parent="ROmwuhWYa9xoos25vHBg-12">
          <mxGeometry y="57.724137931034484" width="140" height="39.48736842105262" as="geometry" />
        </mxCell>
        <mxCell id="ROmwuhWYa9xoos25vHBg-15" value="Vista" style="shape=folder;fontStyle=1;tabWidth=50;tabHeight=20;tabPosition=left;html=1;boundedLbl=1;labelInHeader=1;container=1;collapsible=0;whiteSpace=wrap;fillColor=#f8cecc;strokeColor=#b85450;" vertex="1" parent="1">
          <mxGeometry x="935.5" y="-1000" width="689" height="480" as="geometry" />
        </mxCell>
        <mxCell id="ROmwuhWYa9xoos25vHBg-16" value="" style="html=1;strokeColor=none;resizeWidth=1;resizeHeight=1;fillColor=none;part=1;connectable=0;allowArrows=0;deletable=0;whiteSpace=wrap;" vertex="1" parent="ROmwuhWYa9xoos25vHBg-15">
          <mxGeometry width="688.9999999999999" height="317.3365701404543" relative="1" as="geometry">
            <mxPoint y="30" as="offset" />
          </mxGeometry>
        </mxCell>
        <mxCell id="ROmwuhWYa9xoos25vHBg-17" value="CRUDTorneosIH" style="swimlane;fontStyle=1;align=center;verticalAlign=top;childLayout=stackLayout;horizontal=1;startSize=26;horizontalStack=0;resizeParent=1;resizeParentMax=0;resizeLast=0;collapsible=1;marginBottom=0;whiteSpace=wrap;html=1;swimlaneFillColor=#F0F0F0;gradientColor=none;" vertex="1" parent="ROmwuhWYa9xoos25vHBg-15">
          <mxGeometry x="31.33" y="47.72" width="618.67" height="102.34795357653235" as="geometry" />
        </mxCell>
        <mxCell id="ROmwuhWYa9xoos25vHBg-18" value="" style="line;strokeWidth=1;fillColor=none;align=left;verticalAlign=middle;spacingTop=-1;spacingLeft=3;spacingRight=3;rotatable=0;labelPosition=right;points=[];portConstraint=eastwest;strokeColor=inherit;" vertex="1" parent="ROmwuhWYa9xoos25vHBg-17">
          <mxGeometry y="26" width="618.67" height="31.264686713345252" as="geometry" />
        </mxCell>
        <mxCell id="ROmwuhWYa9xoos25vHBg-19" value="+ salirTorneo(torneoId: int, participanteId: int)" style="text;strokeColor=none;fillColor=none;align=left;verticalAlign=top;spacingLeft=4;spacingRight=4;overflow=hidden;rotatable=0;points=[[0,0.5],[1,0.5]];portConstraint=eastwest;whiteSpace=wrap;html=1;" vertex="1" parent="ROmwuhWYa9xoos25vHBg-17">
          <mxGeometry y="57.264686713345256" width="618.67" height="45.08326686318709" as="geometry" />
        </mxCell>
      </root>
    </mxGraphModel>
  </diagram>
</mxfile>
